<svg xmlns="http://www.w3.org/2000/svg" width="32" height="32" fill="white" class="bi bi-app" viewBox="0 0 16 16">
  <path d="M11 2a3 3 0 0 1 3 3v6a3 3 0 0 1-3 3H5a3 3 0 0 1-3-3V5a3 3 0 0 1 3-3zM5 1a4 4 0 0 0-4 4v6a4 4 0 0 0 4 4h6a4 4 0 0 0 4-4V5a4 4 0 0 0-4-4z"/>
  <svg xmlns="http://www.w3.org/2000/svg" width="16" height="16" fill="white" class="bi bi-house-door-fill" viewBox="-10 -10 35 35">
  <path d="M6 12q0 1-.25 1.5H5a.5.5 0 0 0 0 1h6a.5.5 0 0 0 0-1h-.75Q10 13 10 12h4c2 0 2-2 2-2V4c0-2-2-2-2-2H2C0 2 0 4 0 4v6c0 2 2 2 2 2z"/>
</svg>
</svg>