<svg xmlns="http://www.w3.org/2000/svg" width="32" height="32" fill="white" class="bi bi-app" viewBox="0 0 16 16">
  <path d="M11 2a3 3 0 0 1 3 3v6a3 3 0 0 1-3 3H5a3 3 0 0 1-3-3V5a3 3 0 0 1 3-3zM5 1a4 4 0 0 0-4 4v6a4 4 0 0 0 4 4h6a4 4 0 0 0 4-4V5a4 4 0 0 0-4-4z"/>
  <svg xmlns="http://www.w3.org/2000/svg" width="16" height="16" fill="white" class="bi bi-house-door-fill" viewBox="-10 -10 35 35">
  <path d="M8 15c4.418 0 8-3.134 8-7s-3.582-7-8-7-8 3.134-8 7c0 1.76.743 3.37 1.97 4.6-.097 1.016-.417 2.13-.771 2.966-.079.186.074.394.273.362 2.256-.37 3.597-.938 4.18-1.234A9 9 0 0 0 8 15"/>
</svg>
</svg>