<svg xmlns="http://www.w3.org/2000/svg" width="32" height="32" fill="white" class="bi bi-app" viewBox="0 0 16 16">
  <path d="M11 2a3 3 0 0 1 3 3v6a3 3 0 0 1-3 3H5a3 3 0 0 1-3-3V5a3 3 0 0 1 3-3zM5 1a4 4 0 0 0-4 4v6a4 4 0 0 0 4 4h6a4 4 0 0 0 4-4V5a4 4 0 0 0-4-4z"/>
  <svg xmlns="http://www.w3.org/2000/svg" width="16" height="16" fill="white" class="bi bi-house-door-fill" viewBox="-10 -10 35 35">
  <path d="M0 .995.995 0l3.064 2.19a1 1 0 0 1 .417.809v.07c0 .264.105.517.291.704l5.677 5.676.909-.303a1 1 0 0 1 1.018.24l3.338 3.339a.995.995 0 0 1 0 1.406L14.13 15.71a.995.995 0 0 1-1.406 0l-3.337-3.34a1 1 0 0 1-.24-1.018l.302-.909-5.676-5.677a1 1 0 0 0-.704-.291H3a1 1 0 0 1-.81-.417zm11.293 9.595a.497.497 0 1 0-.703.703l2.984 2.984a.497.497 0 0 0 .703-.703z"/>
</svg>
</svg>